<svg width="200" height="88" viewBox="0 0 200 88" fill="none" xmlns="http://www.w3.org/2000/svg">
<path fill-rule="evenodd" clip-rule="evenodd" d="M182.527 60.98H182.317V60.6501H182.657C182.797 60.6501 182.967 60.6701 182.967 60.8101C182.967 61.0101 182.697 60.98 182.527 60.98ZM183.147 60.8101C183.144 60.7614 183.132 60.7138 183.111 60.6699C183.09 60.626 183.061 60.5867 183.024 60.5542C182.988 60.5217 182.946 60.4966 182.9 60.4805C182.854 60.4643 182.805 60.4575 182.757 60.4602C182.737 60.4602 182.717 60.47 182.697 60.47H182.137V61.75H182.317V61.1602H182.527L182.907 61.75H183.127L182.747 61.1602C182.838 61.1746 182.932 61.152 183.007 61.0977C183.082 61.0433 183.132 60.9615 183.147 60.8701V60.8101ZM182.577 62.1001C182.316 62.1014 182.064 61.999 181.879 61.8152C181.693 61.6314 181.588 61.3814 181.587 61.1201C181.586 60.8589 181.688 60.6078 181.872 60.4221C182.056 60.2365 182.306 60.1315 182.567 60.1301C182.829 60.1301 183.08 60.2325 183.267 60.4158C183.454 60.599 183.562 60.8484 183.567 61.1101V61.1201C183.566 61.2495 183.54 61.3775 183.49 61.4968C183.44 61.6161 183.367 61.7244 183.275 61.8154C183.183 61.9065 183.074 61.9785 182.954 62.0273C182.834 62.0762 182.706 62.1009 182.577 62.1001ZM182.577 59.9502C182.424 59.9495 182.272 59.9789 182.131 60.0369C181.989 60.0948 181.86 60.1801 181.752 60.2878C181.532 60.5054 181.408 60.8011 181.407 61.1101C181.406 61.2631 181.436 61.4148 181.494 61.5564C181.552 61.698 181.637 61.8267 181.745 61.9353C181.852 62.0439 181.98 62.1303 182.121 62.1895C182.262 62.2486 182.414 62.2794 182.567 62.28C182.721 62.282 182.873 62.2536 183.016 62.1963C183.159 62.1389 183.289 62.0539 183.398 61.946C183.508 61.8382 183.596 61.7096 183.655 61.5679C183.715 61.4261 183.746 61.274 183.747 61.1201C183.748 60.9668 183.72 60.8147 183.662 60.6726C183.605 60.5305 183.519 60.4013 183.412 60.2925C183.304 60.1836 183.175 60.0974 183.034 60.0386C182.892 59.9798 182.74 59.9498 182.587 59.9502H182.577ZM171.457 56.22H169.057V45.4102H171.457C172.89 45.4102 174.265 45.9795 175.279 46.9932C176.292 48.0068 176.862 49.3817 176.862 50.8152C176.862 52.2487 176.292 53.6233 175.279 54.637C174.265 55.6506 172.89 56.22 171.457 56.22ZM171.457 39.8501H166.097C165.311 39.8541 164.559 40.1684 164.005 40.7249C163.45 41.2813 163.138 42.0345 163.137 42.8201V58.8101C163.137 59.5951 163.449 60.348 164.004 60.9031C164.559 61.4582 165.312 61.77 166.097 61.77H171.457C174.364 61.77 177.151 60.6155 179.207 58.5601C181.262 56.5047 182.417 53.7168 182.417 50.8101C182.417 47.9033 181.262 45.1157 179.207 43.0603C177.151 41.0049 174.364 39.8501 171.457 39.8501ZM95.4498 56.22H93.0568V45.4102H95.4568C96.1666 45.4102 96.8694 45.5499 97.5252 45.8215C98.181 46.0932 98.7768 46.4913 99.2787 46.9932C99.7806 47.4951 100.179 48.0908 100.45 48.7466C100.722 49.4023 100.862 50.1054 100.862 50.8152C100.862 51.525 100.722 52.2278 100.45 52.8835C100.179 53.5393 99.7806 54.1351 99.2787 54.637C98.7768 55.1389 98.181 55.537 97.5252 55.8086C96.8694 56.0802 96.1666 56.22 95.4568 56.22H95.4498ZM95.4568 39.8501H90.0978C89.311 39.8554 88.5581 40.1717 88.0035 40.73C87.449 41.2883 87.1378 42.0432 87.1378 42.8301V58.8101C87.1397 59.5945 87.4521 60.3464 88.0068 60.9011C88.5615 61.4558 89.3134 61.7682 90.0978 61.77H95.4568C98.3636 61.77 101.151 60.6155 103.207 58.5601C105.262 56.5047 106.417 53.7168 106.417 50.8101C106.417 47.9033 105.262 45.1157 103.207 43.0603C101.151 41.0049 98.3636 39.8501 95.4568 39.8501ZM73.5858 56.22C72.5171 56.2219 71.4718 55.9074 70.5817 55.3159C69.6916 54.7244 68.9966 53.8825 68.5845 52.8965C68.1723 51.9104 68.0614 50.8244 68.2658 49.7754C68.4702 48.7264 68.9807 47.7614 69.7329 47.0022C70.4851 46.243 71.4453 45.7238 72.4924 45.5098C73.5394 45.2957 74.6265 45.3965 75.6163 45.7996C76.6061 46.2026 77.4543 46.8898 78.054 47.7744C78.6537 48.659 78.9779 49.7013 78.9858 50.77C78.9858 50.79 78.9858 50.8001 78.9858 50.8101C78.9866 52.2434 78.4183 53.6184 77.4057 54.6328C76.3931 55.6473 75.0191 56.2181 73.5858 56.22ZM73.5858 39.8501C71.4207 39.8474 69.3033 40.486 67.5007 41.6853C65.6981 42.8846 64.291 44.5909 63.457 46.5889C62.6229 48.5869 62.3993 50.7869 62.8143 52.9119C63.2293 55.0368 64.2644 56.9914 65.7888 58.5288C67.3133 60.0662 69.2589 61.1178 71.3802 61.5508C73.5016 61.9837 75.7037 61.7785 77.7087 60.9614C79.7137 60.1443 81.4318 58.7519 82.6463 56.9595C83.8608 55.1671 84.5172 53.0552 84.5328 50.8901V50.8101C84.5323 47.9057 83.3792 45.1203 81.3267 43.0654C79.2742 41.0105 76.4902 39.8541 73.5858 39.8501ZM49.5228 56.22C48.4543 56.2233 47.4086 55.9103 46.5178 55.3201C45.627 54.7298 44.931 53.8889 44.5175 52.9036C44.104 51.9182 43.9916 50.8326 44.1944 49.7834C44.3972 48.7343 44.9061 47.7686 45.657 47.0083C46.408 46.248 47.3672 45.7272 48.4138 45.5115C49.4604 45.2957 50.5474 45.3948 51.5378 45.7961C52.5281 46.1974 53.3775 46.8829 53.9786 47.7664C54.5798 48.6498 54.906 49.6915 54.9158 50.76C54.9158 50.78 54.9158 50.8001 54.9158 50.8101C54.9145 52.2417 54.3463 53.6146 53.3354 54.6284C52.3246 55.6422 50.9535 56.2144 49.5219 56.22H49.5228ZM49.5219 39.8501C47.5589 39.8531 45.6328 40.3837 43.9453 41.3865C42.2577 42.3893 40.8709 43.8274 39.9298 45.55C39.7362 44.9539 39.3588 44.4345 38.8516 44.0662C38.3444 43.6979 37.7336 43.4996 37.1068 43.5H19.3378C18.552 43.5029 17.7992 43.8171 17.2444 44.3738C16.6897 44.9304 16.3781 45.6841 16.3778 46.47V58.4102C16.3903 59.31 16.7559 60.1689 17.3958 60.8018C18.0356 61.4346 18.8985 61.7908 19.7985 61.7935C20.6984 61.7961 21.5634 61.4448 22.207 60.8157C22.8505 60.1866 23.2211 59.33 23.2388 58.4302V49.4402H37.1008C37.6856 49.4422 38.2575 49.268 38.7418 48.9402C38.6298 49.5605 38.5759 50.1898 38.5808 50.8201C38.5875 52.9815 39.2346 55.0925 40.4404 56.8865C41.6461 58.6804 43.3564 60.0769 45.3553 60.8994C47.3542 61.7219 49.5519 61.9336 51.6711 61.5078C53.7902 61.082 55.7356 60.0379 57.2617 58.5071C58.7877 56.9763 59.8259 55.0277 60.2451 52.9072C60.6643 50.7868 60.4458 48.5896 59.6171 46.5933C58.7884 44.5969 57.3867 42.8911 55.589 41.6909C53.7913 40.4908 51.6783 39.8501 49.5168 39.8501H49.5219ZM38.1568 39.8301C38.9745 39.8094 39.7519 39.47 40.3229 38.8843C40.894 38.2986 41.2136 37.5131 41.2136 36.6951C41.2136 35.8771 40.894 35.0915 40.3229 34.5059C39.7519 33.9202 38.9745 33.5807 38.1568 33.5601H18.0568C17.2391 33.5807 16.4618 33.9202 15.8907 34.5059C15.3196 35.0915 15 35.8771 15 36.6951C15 37.5131 15.3196 38.2986 15.8907 38.8843C16.4618 39.47 17.2391 39.8094 18.0568 39.8301H38.1568ZM157.687 39.9302C156.903 39.9336 156.152 40.2464 155.598 40.8008C155.043 41.3551 154.73 42.1061 154.727 42.8901V50.3501C152.057 47.2701 146.777 41.1901 146.487 40.8801C145.955 40.3038 145.217 39.9612 144.434 39.9275C143.651 39.8938 142.886 40.1716 142.307 40.7002C142.001 40.9764 141.757 41.3143 141.591 41.6919C141.426 42.0695 141.343 42.4779 141.347 42.8901V58.1602C141.303 57.8374 141.208 57.5234 141.067 57.23C141.047 57.23 141.047 57.2201 132.582 41.3901C132.433 40.8468 132.123 40.3611 131.693 39.9971C131.263 39.633 130.733 39.4075 130.173 39.3501C129.587 39.4017 129.031 39.6344 128.583 40.0161C128.135 40.3978 127.817 40.9094 127.673 41.48L127.742 41.4602C127.322 42.1818 126.943 42.9263 126.606 43.6902L120.754 55.73L120.708 55.76H114.351V42.8101C114.337 42.0343 114.018 41.2953 113.465 40.7517C112.911 40.2081 112.166 39.9036 111.39 39.9036C110.614 39.9036 109.87 40.2081 109.316 40.7517C108.762 41.2953 108.444 42.0343 108.43 42.8101V59.1301C108.449 59.3256 108.52 59.5123 108.637 59.6702C108.825 60.2569 109.193 60.7692 109.69 61.1338C110.187 61.4984 110.786 61.6967 111.402 61.7002H122.59C123.147 61.7027 123.694 61.5459 124.166 61.2483C124.637 60.9507 125.014 60.5245 125.252 60.02C125.252 60.02 129.429 51.42 130.461 49.3C130.897 50.16 135.774 59.9302 135.774 59.9302C136.13 60.6278 136.749 61.1559 137.493 61.3994C138.238 61.643 139.049 61.5821 139.749 61.23C140.1 61.056 140.413 60.8133 140.669 60.5161C140.925 60.219 141.119 59.8734 141.239 59.5C141.298 59.3145 141.338 59.1237 141.359 58.9302C141.415 59.6956 141.766 60.4091 142.338 60.9209C142.91 61.4327 143.658 61.7028 144.425 61.6743C145.192 61.6458 145.918 61.3212 146.45 60.7683C146.982 60.2154 147.279 59.4777 147.279 58.7102V50.8801C148.099 51.8601 155.389 60.52 155.389 60.52L155.329 60.54L155.399 60.6201L155.439 60.6702C155.713 61.001 156.057 61.2673 156.446 61.4504C156.835 61.6336 157.259 61.729 157.689 61.73C158.476 61.7281 159.23 61.4147 159.787 60.8582C160.343 60.3016 160.657 59.5471 160.659 58.76V42.9001C160.659 42.5107 160.581 42.125 160.432 41.7654C160.283 41.4057 160.064 41.0791 159.788 40.8042C159.512 40.5293 159.184 40.3113 158.824 40.1631C158.464 40.0148 158.078 39.9391 157.689 39.9402" fill="#F01616"/>
</svg>
