<svg width="200" height="88" viewBox="0 0 200 88" fill="none" xmlns="http://www.w3.org/2000/svg">
<path d="M177 20H23V74H177V20Z" fill="#BFD730"/>
<path d="M46.2688 36.4584C46.548 36.4584 46.7341 36.6725 46.7341 36.8862V41.5003C46.7341 41.7753 46.548 41.9587 46.2688 41.9587H38.39V44.7395H44.6247C44.9039 44.7395 45.0591 44.9535 45.0281 45.1369L44.5937 49.4146C44.5628 49.5979 44.3457 49.812 44.0665 49.812H38.39V57.1152C38.39 57.3289 38.1727 57.5429 37.9247 57.5429H32.4344C32.1861 57.5429 32 57.2986 32 57.0845V36.8862C32 36.6725 32.1861 36.4584 32.4344 36.4584H46.2688Z" fill="#231F20"/>
<path d="M66.9908 57.0538C67.1458 57.3289 66.9287 57.5429 66.6495 57.5429H60.0115C59.7013 57.5429 59.4221 57.3289 59.2981 57.0538L56.0722 50.3924H55.6999V57.1152C55.6999 57.3289 55.4828 57.5429 55.2036 57.5429H49.7443C49.496 57.5429 49.2789 57.3289 49.2789 57.1152V36.9169C49.2789 36.6725 49.496 36.4584 49.7443 36.4584H57.9332C62.7103 36.4584 65.874 39.2086 65.874 43.3642C65.874 45.7783 64.3851 48.2231 62.0588 49.2009L66.9908 57.0538ZM57.5299 45.1979C58.5847 45.1979 59.2981 44.5561 59.2981 43.5783C59.2981 42.6004 58.5847 41.9587 57.5299 41.9587H55.6999V45.1979H57.5299V45.1979Z" fill="#231F20"/>
<path d="M83.8361 52.0427C84.0841 52.0427 84.3014 52.226 84.3014 52.4397V57.1152C84.3014 57.3289 84.0841 57.5429 83.8361 57.5429H69.4123C69.195 57.5429 68.9779 57.2985 68.916 57.0845V36.8862C68.916 36.6111 69.071 36.4584 69.3502 36.4584H83.4638C83.743 36.4584 83.9601 36.6725 83.9601 36.8862V41.5003C83.9601 41.7753 83.743 41.9587 83.4638 41.9587H75.368V44.3727H81.9439C82.2231 44.3727 82.3781 44.5868 82.3472 44.7702L81.913 49.0482C81.8818 49.2312 81.6647 49.4452 81.3855 49.4452H75.368V52.0427H83.8361Z" fill="#231F20"/>
<path d="M88.614 51.1258C88.7071 50.8205 88.9244 50.7288 89.1725 50.8815C90.5993 51.6759 92.3055 52.2563 93.484 52.348C94.4766 52.348 95.1281 51.89 95.1281 51.1868C95.1281 49.3842 86.4117 49.4759 86.4117 42.8145C86.4117 38.7198 89.5447 36 94.2595 36C96.4618 36 99.2537 36.8861 101.208 38.2004C101.456 38.3531 101.549 38.5974 101.456 38.7501L99.5018 43.0588C99.4087 43.3642 99.1916 43.4559 98.9435 43.3032C97.4235 42.4478 95.6554 41.806 94.5697 41.7143C93.6082 41.7143 92.9879 42.142 92.9879 42.8145C92.9879 44.6171 101.766 44.4951 101.766 51.2175C101.766 55.2815 98.5713 58.0013 93.7944 58.0013C91.1886 58.0013 88.4591 57.2068 86.908 55.9847C86.66 55.8013 86.5669 55.5872 86.66 55.4346L88.614 51.1258Z" fill="#231F20"/>
<path d="M121.402 36.4584C121.681 36.4584 121.867 36.6725 121.867 36.9168V57.1152C121.867 57.3289 121.681 57.5429 121.402 57.5429H115.602C115.353 57.5429 115.167 57.3289 115.167 57.1152V50.2704H110.825V57.1152C110.825 57.3289 110.639 57.5429 110.359 57.5429H104.559C104.342 57.5429 104.125 57.3289 104.125 57.1152V36.9168C104.125 36.6725 104.342 36.4584 104.559 36.4584H110.359C110.639 36.4584 110.825 36.6725 110.825 36.9168V44.8921H115.167V36.9168C115.167 36.6725 115.353 36.4584 115.602 36.4584H121.402Z" fill="#231F20"/>
<path d="M145.195 55.6789C145.288 55.893 145.164 56.1066 144.916 56.229C143.117 57.3288 140.697 58.0013 138.402 58.0013C132.012 58.0013 127.731 53.6009 127.731 47.0008C127.731 40.4004 132.012 36 138.402 36C140.697 36 143.117 36.6725 144.916 37.7723C145.164 37.8947 145.288 38.1087 145.195 38.3224L143.148 42.5697C143.024 42.8448 142.807 42.9365 142.559 42.8145C141.411 42.1727 140.294 41.9587 138.96 41.9587C136.169 41.9587 134.307 43.9757 134.307 47.0008C134.307 50.026 136.169 52.0427 138.96 52.0427C140.294 52.0427 141.411 51.8286 142.559 51.1868C142.807 51.0648 143.024 51.1565 143.148 51.4316L145.195 55.6789Z" fill="#231F20"/>
<path d="M156.614 36.0027C150.448 36.0027 145.449 40.9267 145.449 47.0007C145.449 53.0746 150.448 57.9986 156.614 57.9986C162.779 57.9986 167.778 53.0746 167.778 47.0007C167.778 40.9265 162.779 36.0027 156.614 36.0027ZM163.276 45.9012L156.904 53.677C156.831 53.7666 156.728 53.8174 156.621 53.8174C156.514 53.8174 156.411 53.7666 156.338 53.677L149.966 45.9012C149.86 45.7719 149.831 45.583 149.893 45.4202C149.954 45.2579 150.094 45.1524 150.249 45.1524H153.817V41.1406C153.817 40.8473 154.061 40.6074 154.359 40.6074H158.883C159.181 40.6074 159.425 40.8473 159.425 41.1406V45.1524H162.993C163.148 45.1524 163.288 45.2579 163.35 45.4202C163.411 45.583 163.382 45.7719 163.276 45.9012Z" fill="#231F20"/>
</svg>
