<svg width="223" height="60" viewBox="0 0 223 60" fill="none" xmlns="http://www.w3.org/2000/svg">
<g clip-path="url(#clip0_8620_1206)">
<path d="M19.14 41.02C22.52 41.02 25.26 39.94 27.21 38.31C28.8 36.99 31.05 36.81 32.86 37.84L34.6 38.83C31.48 43.65 26.09 46.84 19.01 46.84C7.60001 46.84 0.0100098 38.83 0.0100098 28.2C0.0100098 17.57 7.51001 9.54 18.57 9.54C29.63 9.54 36.22 18.33 36.22 28.25V31.01H6.31001C7.52001 37.39 12.55 41 19.14 41V41.02ZM6.31001 25.64H29.98C28.92 18.62 23.88 15.36 18.57 15.36C11.91 15.36 7.30001 19.47 6.31001 25.64Z" fill="#33005A"/>
<path d="M93.5 23.86V45.9H87.33V24.08C87.33 18.48 84.21 15.43 79.53 15.43C74.57 15.43 70.81 18.55 70.81 26.2V45.9H64.64V24.08C64.64 18.48 61.73 15.43 57.13 15.43C52.53 15.43 48.06 18.55 48.06 26.2V45.9H41.89V10.47H48.06V15.22C50.61 11.25 54.3 9.55 58.62 9.55C63.44 9.55 66.98 11.75 69.04 15.58C71.52 11.54 75.56 9.55 80.17 9.55C88.04 9.55 93.5 15.01 93.5 23.87V23.86Z" fill="#33005A"/>
<path d="M138.16 28.19C138.16 38.68 130.08 46.83 120.23 46.83C114.2 46.83 109.67 44.14 106.83 39.81V54.9C106.83 57.68 104.58 59.93 101.8 59.93H100.66V10.47H106.83V16.57C109.67 12.25 114.2 9.55 120.23 9.55C130.08 9.55 138.16 17.7 138.16 28.19ZM131.99 28.19C131.99 20.96 126.53 15.5 119.44 15.5C112.35 15.5 106.82 20.96 106.82 28.19C106.82 35.42 112.28 40.88 119.44 40.88C126.6 40.88 131.99 35.42 131.99 28.19Z" fill="#33005A"/>
<path d="M144.12 10.47H150.29V45.91H144.12V10.47Z" fill="#33005A"/>
<path d="M174.51 9.83V16.28C169.19 16.07 163.45 18.76 163.45 27.12V45.9H157.28V10.47H163.45V16.42C165.72 11.46 170.04 9.83 174.51 9.83Z" fill="#33005A"/>
<path d="M203.1 10.74C203.59 9.61 204.36 8.64 205.32 7.91C205.83 6.2 205.43 4.28 204.08 2.93L201.15 0L198.22 2.93C197.11 4.04 196.65 5.54 196.8 7C199.21 7.72 201.37 9.02 203.11 10.75L203.1 10.74Z" fill="#1B9692"/>
<path d="M219.66 16.46C217.74 13.44 214.8 11.19 211.53 10.19H211.51C208.91 9.39 206.28 11.36 206.28 14.08V15.72C207.23 15.72 207.88 15.72 208.63 15.83C210.92 16.15 213.1 17.62 214.45 19.75C215.54 21.47 216.59 24.37 215.33 28.4C215.02 29.4 214.58 30.39 214.01 31.35C210.48 37.32 203.25 40.63 199.6 40.63C197.24 40.63 193.38 39.25 189.99 36.66C193 35.65 194.94 34.48 195.4 34.18C196.39 33.6 203.47 29.18 203.57 21.27C203.61 17.87 202.3 14.83 199.87 12.69C197.23 10.36 193.34 9.23 189.72 9.73C185.66 10.3 181.86 12.81 179.55 16.45C177.02 20.44 176.46 25.33 177.98 30.22C178.43 31.68 179.07 33.11 179.88 34.47C184.43 42.17 193.47 46.77 199.59 46.77H199.61C205.73 46.77 214.77 42.16 219.31 34.46C220.12 33.09 220.76 31.66 221.21 30.21C222.73 25.32 222.17 20.42 219.64 16.44L219.66 16.46ZM185.2 31.36C184.63 30.4 184.19 29.41 183.88 28.41C182.63 24.39 183.67 21.49 184.77 19.76C186.12 17.62 188.3 16.16 190.59 15.84C190.89 15.8 191.19 15.78 191.49 15.78C193.09 15.78 194.71 16.35 195.82 17.32C196.91 18.28 197.45 19.58 197.43 21.2C197.37 25.93 192.36 28.85 192.32 28.87L192.13 28.99C192.13 28.99 189.49 30.68 185.34 31.58C185.3 31.51 185.25 31.44 185.21 31.37L185.2 31.36Z" fill="#33005A"/>
<path d="M115.11 57.45C115.11 56.03 116.18 54.9 117.68 54.9C118.59 54.9 119.39 55.37 119.8 56.1L119.23 56.43C118.95 55.89 118.35 55.54 117.67 55.54C116.52 55.54 115.74 56.38 115.74 57.46C115.74 58.54 116.51 59.37 117.67 59.37C118.34 59.37 118.94 59.02 119.23 58.48L119.8 58.8C119.39 59.52 118.59 60 117.68 60C116.17 60 115.11 58.86 115.11 57.45Z" fill="#33005A"/>
<path d="M123.29 57.45C123.29 56.03 124.41 54.9 125.83 54.9C127.25 54.9 128.38 56.03 128.38 57.45C128.38 58.87 127.25 60 125.83 60C124.41 60 123.29 58.86 123.29 57.45ZM127.73 57.45C127.73 56.37 126.91 55.53 125.83 55.53C124.75 55.53 123.93 56.37 123.93 57.45C123.93 58.53 124.75 59.36 125.83 59.36C126.91 59.36 127.73 58.52 127.73 57.45Z" fill="#33005A"/>
<path d="M136.81 59.91H136.16V56.06L134.55 58.74H134.47L132.86 56.07V59.91H132.21V54.99H132.95L134.52 57.59L136.08 54.99H136.82V59.91H136.81Z" fill="#33005A"/>
<path d="M144.26 56.57C144.26 57.46 143.58 58.15 142.67 58.15H141.54V59.91H140.89V54.99H142.68C143.59 54.99 144.27 55.67 144.27 56.57H144.26ZM143.61 56.57C143.61 56.01 143.21 55.6 142.67 55.6H141.54V57.54H142.67C143.21 57.54 143.61 57.13 143.61 56.57Z" fill="#33005A"/>
<path d="M150.4 58.8H148.18L147.78 59.9H147.08L148.92 54.98H149.66L151.5 59.9H150.8L150.4 58.8ZM150.17 58.19L149.28 55.76L148.4 58.19H150.16H150.17Z" fill="#33005A"/>
<path d="M158.82 54.98V59.9H158.29L155.76 56.22V59.9H155.11V54.98H155.64L158.17 58.65V54.98H158.82Z" fill="#33005A"/>
<path d="M164.82 57.92V59.91H164.17V57.91L162.43 54.99H163.16L164.5 57.3L165.84 54.99H166.57L164.83 57.92H164.82Z" fill="#33005A"/>
<path d="M177.73 59.29V59.91H174.95V54.99H175.6V59.29H177.72H177.73Z" fill="#33005A"/>
<path d="M182.06 54.98V59.9H181.41V54.98H182.06Z" fill="#33005A"/>
<path d="M190.75 59.91H190.1V56.06L188.49 58.74H188.41L186.8 56.07V59.91H186.15V54.99H186.89L188.46 57.59L190.02 54.99H190.76V59.91H190.75Z" fill="#33005A"/>
<path d="M195.48 54.98V59.9H194.83V54.98H195.48Z" fill="#33005A"/>
<path d="M202.71 55.6H201.25V59.9H200.6V55.6H199.15V54.98H202.7V55.6H202.71Z" fill="#33005A"/>
<path d="M209.32 59.29V59.91H206.38V54.99H209.28V55.61H207.03V57.12H209.1V57.73H207.03V59.29H209.31H209.32Z" fill="#33005A"/>
<path d="M217.39 57.45C217.39 58.81 216.41 59.91 215.06 59.91H213.14V54.99H215.06C216.42 54.99 217.39 56.09 217.39 57.45ZM216.76 57.45C216.76 56.41 216.06 55.61 215.05 55.61H213.78V59.3H215.05C216.06 59.3 216.76 58.5 216.76 57.46V57.45Z" fill="#33005A"/>
</g>
<defs>
<clipPath id="clip0_8620_1206">
<rect width="222.06" height="60" fill="white"/>
</clipPath>
</defs>
</svg>
