<svg width="200" height="88" viewBox="0 0 200 88" fill="none" xmlns="http://www.w3.org/2000/svg">
<path fill-rule="evenodd" clip-rule="evenodd" d="M83.079 29.67C84.279 29.64 83.587 30.61 83.587 30.61L69.4051 65.58C69.3486 65.7654 69.2228 65.922 69.0538 66.017C68.8849 66.112 68.6858 66.138 68.498 66.09H58.1611C57.0731 66.09 57.7261 65.15 57.7261 65.15L72.3071 30.0001C72.3491 29.8751 72.4369 29.7704 72.5529 29.7074C72.6688 29.6443 72.8042 29.6274 72.9321 29.66L83.079 29.67ZM112.853 29.6901L94.3531 29.65C92.8768 29.7271 91.4169 29.9961 90.0101 30.4501C90.0101 30.4501 87.622 31.38 86.97 32.36C86.1628 33.1805 85.5561 34.1763 85.1971 35.2699L76.2971 57.0599C75.8953 58.2067 75.6639 59.4061 75.61 60.62C75.7086 62.0443 76.3203 63.3845 77.3317 64.3922C78.343 65.3999 79.6854 66.0066 81.11 66.1H99.2101C99.4057 66.1305 99.6056 66.0841 99.7676 65.9703C99.9297 65.8566 100.041 65.6845 100.079 65.4901L107.788 46.18C107.788 46.18 108.114 45.4701 107.1 45.4701H97.037C96.8988 45.4535 96.7586 45.4743 96.6312 45.5306C96.5038 45.5869 96.3939 45.6765 96.313 45.7899L93.345 52.63C93.345 52.63 92.911 53.17 93.8521 53.17H96.8921C96.8921 53.17 97.5071 52.9901 97.2181 53.7101L96.1321 56.66C96.1187 56.7414 96.0892 56.8192 96.0454 56.889C96.0016 56.9589 95.9443 57.0193 95.877 57.0668C95.8096 57.1142 95.7334 57.1477 95.6529 57.1654C95.5724 57.1831 95.4892 57.1848 95.4081 57.17H91.5721C91.5721 57.17 88.0251 57.6001 89.4001 54.0001L94.6481 41.4C94.6481 41.4 95.299 39.2701 98.665 39.2301H109.089C109.419 39.2566 109.747 39.167 110.018 38.9772C110.289 38.7873 110.485 38.509 110.573 38.1901L113.468 30.63C113.468 30.63 114.047 29.6501 112.853 29.6901ZM130.275 65.9701H121.17C119.522 65.9701 120.238 64.7201 120.238 64.7201L123.393 55.5499C123.467 55.4317 123.502 55.2937 123.494 55.1547C123.487 55.0156 123.436 54.8822 123.35 54.7728C123.264 54.6635 123.146 54.5835 123.012 54.5436C122.879 54.5037 122.736 54.5058 122.604 54.5499H120.346C120.015 54.4844 119.672 54.5377 119.377 54.7006C119.082 54.8634 118.854 55.1254 118.733 55.4401L114.79 65.15C114.671 65.4911 114.428 65.7751 114.109 65.9454C113.79 66.1158 113.419 66.1602 113.069 66.0699H104.825C103.176 66.0699 103.964 64.8199 103.964 64.8199L116.3 34.08C117.806 29.41 124.939 29.66 124.939 29.66H135.764C144.833 30.41 141.392 39.0399 141.392 39.0399L130.275 65.9701ZM123.106 44.64C122.748 45.57 123.572 45.39 123.572 45.39H126.872C127.11 45.4392 127.357 45.4005 127.568 45.2809C127.779 45.1613 127.939 44.9691 128.019 44.7401L129.74 40.3199C130.64 37.9699 127.875 38.0399 127.875 38.0399C127.296 37.9822 126.713 38.105 126.206 38.3915C125.699 38.6779 125.293 39.114 125.044 39.64L123.108 44.64H123.106ZM135.351 65.7999C135.184 65.9666 134.957 66.0602 134.721 66.0602C134.484 66.0602 134.258 65.9666 134.09 65.7999C134.008 65.718 133.942 65.6208 133.898 65.5135C133.853 65.4063 133.83 65.2911 133.83 65.1749C133.83 65.0587 133.853 64.9438 133.898 64.8365C133.942 64.7293 134.008 64.6318 134.09 64.5499C134.214 64.4262 134.372 64.342 134.544 64.3075C134.715 64.273 134.893 64.2899 135.056 64.3561C135.218 64.4222 135.357 64.5345 135.456 64.6793C135.554 64.8241 135.608 64.9949 135.61 65.17C135.613 65.2873 135.591 65.4039 135.547 65.5123C135.502 65.6208 135.436 65.7186 135.351 65.7999ZM134.178 64.63C134.106 64.7001 134.049 64.7842 134.011 64.8771C133.973 64.9699 133.954 65.0696 133.955 65.17C133.953 65.272 133.971 65.3733 134.009 65.4679C134.047 65.5625 134.105 65.6484 134.177 65.7201C134.323 65.8612 134.517 65.9401 134.72 65.9401C134.923 65.9401 135.118 65.8612 135.263 65.7201C135.406 65.5747 135.486 65.3788 135.486 65.1749C135.486 64.971 135.406 64.7753 135.263 64.63C135.118 64.4889 134.923 64.41 134.721 64.41C134.518 64.41 134.323 64.4889 134.178 64.63ZM134.703 64.68C134.794 64.6733 134.885 64.687 134.97 64.7201C135.01 64.7388 135.045 64.7673 135.071 64.8031C135.097 64.8389 135.114 64.8805 135.12 64.9244C135.125 64.9684 135.12 65.0131 135.103 65.0543C135.087 65.0955 135.06 65.1319 135.026 65.16C134.982 65.1817 134.934 65.1953 134.885 65.2001C134.951 65.2121 135.011 65.2475 135.053 65.2999C135.086 65.343 135.105 65.3957 135.106 65.4501V65.5199C135.106 65.5399 135.106 65.57 135.106 65.59C135.105 65.607 135.108 65.624 135.114 65.64L135.12 65.66H134.959C134.959 65.65 134.959 65.65 134.959 65.65V65.63V65.6V65.5299C134.965 65.4869 134.96 65.4429 134.944 65.4025C134.928 65.3621 134.901 65.3267 134.867 65.2999C134.806 65.2756 134.74 65.2654 134.675 65.2699H134.539V65.66H134.36V64.68H134.7H134.703ZM134.889 64.84C134.825 64.807 134.752 64.7931 134.68 64.7999H134.533V65.15H134.689C134.744 65.1507 134.8 65.144 134.853 65.13C134.883 65.1188 134.91 65.0984 134.927 65.0714C134.945 65.0444 134.954 65.0125 134.953 64.9801C134.957 64.9531 134.953 64.9253 134.942 64.9005C134.93 64.8757 134.912 64.8547 134.889 64.84Z" fill="#F01616"/>
</svg>
