<svg width="200" height="88" viewBox="0 0 200 88" fill="none" xmlns="http://www.w3.org/2000/svg">
<path fill-rule="evenodd" clip-rule="evenodd" d="M27.2459 46.8999L25.7019 46.01C23.8659 44.91 22.8639 44.1 22.8639 42.79C22.8639 41.34 24.0329 40.45 25.9109 40.45C27.652 40.614 29.3274 41.1972 30.7939 42.1499L31.0439 42.3201V38.5801L31.0019 38.54C29.3485 37.6465 27.4984 37.179 25.6189 37.1799C21.6959 37.1799 19.0249 39.52 19.0249 42.96C19.0249 45.8 20.8249 47.4601 23.5739 49.1101L25.1599 50.0901C27.4129 51.4401 28.2059 52.4201 28.2059 53.8601C28.2059 55.5601 26.7059 56.75 24.5759 56.75C22.8639 56.75 21.0279 56.0701 18.7329 54.5801L18.6909 54.5V58.79L18.9829 58.96C20.7978 59.8091 22.7792 60.243 24.7829 60.23C29.2489 60.23 32.2119 57.64 32.2119 53.74C32.2129 50.94 30.8349 49.0199 27.2459 46.8999ZM54.4559 59.72H58.2959V50.0901H66.8089V46.6499H58.2999V41.1699H67.2299V37.6899H54.4599V59.72H54.4559ZM73.5279 49.9199H81.7079V46.48H73.5279V41.1699H82.3749V37.6899H69.7299V59.72H82.5419V56.2H73.5279V49.9199ZM138.089 37.6899C138.089 37.6899 136.002 41.05 133.206 45.5C133.031 45.771 132.878 46.0553 132.747 46.3501H132.705C132.574 46.0555 132.42 45.7713 132.246 45.5C129.246 40.71 127.322 37.6899 127.322 37.6899H122.689L130.744 49.7V59.72H134.666V49.7C135.084 49.07 142.721 37.6899 142.721 37.6899H138.089ZM117.264 36.97L107.081 59.72H111.254L112.84 55.8999H122.063L123.691 59.72H127.822L117.639 36.97H117.264ZM120.728 52.72H114.176C114.176 52.72 115.97 48.3001 117.139 45.5901C117.277 45.2494 117.375 44.8936 117.431 44.53H117.472C117.55 44.8885 117.648 45.2424 117.765 45.5901C118.975 48.4301 120.728 52.72 120.728 52.72ZM107.206 37.6899C107.206 37.6899 104.285 46.99 103.367 49.96C103.283 50.3 103.116 50.8901 103.075 51.0601H103.033C102.968 50.6856 102.87 50.3175 102.741 49.96C102.031 48.01 97.8159 36.8899 97.8159 36.8899H97.4829C97.4829 36.8899 93.4759 47.58 92.5579 49.96C92.4336 50.3189 92.336 50.6867 92.2659 51.0601H92.2239C92.1587 50.6856 92.061 50.3175 91.9319 49.96C90.9719 46.9 88.0929 37.6899 88.0929 37.6899H83.9999L91.7619 60.48H92.1379C92.1379 60.48 96.4779 49.4901 97.3129 47.3301C97.4481 46.9711 97.546 46.599 97.6049 46.22H97.6459C97.7096 46.5981 97.8077 46.9698 97.9389 47.3301C98.6479 49.1501 103.113 60.48 103.113 60.48H103.489L111.251 37.6899H107.203H107.206ZM42.5209 36.97L32.2999 59.72H36.4729L38.1009 55.8999H47.3239L48.9509 59.72H53.0829L42.8999 36.97H42.5249H42.5209ZM45.9839 52.72H39.3909C39.3909 52.72 41.1849 48.3001 42.3539 45.5901C42.4959 45.2472 42.6077 44.8924 42.6879 44.53H42.7289C42.8065 44.8885 42.9039 45.2425 43.0209 45.5901C44.1899 48.4301 45.9839 52.72 45.9839 52.72Z" fill="black"/>
<path fill-rule="evenodd" clip-rule="evenodd" d="M168.569 33.74C168.17 33.7042 167.769 33.6941 167.369 33.71C167.15 33.7223 166.932 33.7491 166.716 33.79C166.377 33.8469 166.047 33.9478 165.734 34.0901C164.79 34.4971 163.999 35.1897 163.47 36.0706C162.941 36.9514 162.702 37.976 162.786 39C162.786 45.02 171.827 45.5599 171.827 54.1299C171.827 60.2699 167.01 63.3201 162.194 63.8201L161.894 63.8501C161.889 63.8497 161.885 63.8503 161.881 63.8521C161.876 63.8538 161.873 63.8566 161.87 63.8601C161.87 63.8701 161.888 63.8799 161.918 63.8799C162.108 63.8799 162.299 63.8899 162.492 63.8899H165.009C174.786 63.8899 180.616 59.17 180.616 50.03V47.3701C180.615 39.4001 176.183 34.79 168.569 33.74ZM158.93 63.6499C159.328 63.6942 159.729 63.7077 160.13 63.6899C160.337 63.6699 160.568 63.6501 160.783 63.6101C161.122 63.5531 161.452 63.4522 161.765 63.3101C162.709 62.9006 163.5 62.2059 164.029 61.3235C164.558 60.4411 164.797 59.4151 164.713 58.3899C164.713 52.3799 155.672 51.83 155.672 43.27C155.672 37.13 160.488 34.0801 165.304 33.5801L165.604 33.55C165.614 33.5461 165.622 33.5391 165.628 33.53C165.613 33.5229 165.596 33.5195 165.579 33.52C165.389 33.51 165.198 33.51 165.005 33.51H162.488C152.711 33.51 146.882 38.2301 146.882 47.3701V50.03C146.885 58 151.316 62.5999 158.93 63.6499Z" fill="#E71A1A"/>
</svg>
