<svg width="200" height="88" viewBox="0 0 200 88" fill="none" xmlns="http://www.w3.org/2000/svg">
<path fill-rule="evenodd" clip-rule="evenodd" d="M161.347 50.5299C162.839 42.6399 168.542 36.3999 176.971 36.0299C177.249 35.9901 177.532 35.9833 177.812 36.0099V44.81C177.529 44.8208 177.248 44.8541 176.971 44.9098C170.897 45.8998 169.231 49.8199 168.542 54.1999C167.31 59.4899 161.691 65.04 153.489 65.32V56.7299C155.309 56.7459 157.08 56.14 158.509 55.0126C159.938 53.8852 160.939 52.3038 161.347 50.5299ZM154.154 36.4999L147.516 49.1598L142.041 36.4198H133.112L142.598 58.1898L134.672 71.5299H144.018L162.705 36.4999H154.154ZM91.1539 56.7799C92.6858 56.7508 94.1437 56.1155 95.208 55.0133C96.2723 53.9112 96.8563 52.4318 96.8319 50.8998C96.8275 49.3773 96.2337 47.9156 95.1752 46.8212C94.1166 45.7268 92.6755 45.085 91.1539 45.0299C87.0229 45.0299 85.5729 47.94 85.4839 51.08C85.5022 52.5809 86.1045 54.0156 87.163 55.0797C88.2216 56.1439 89.6532 56.7538 91.1539 56.7799ZM90.8819 36.6798C94.5818 36.7873 98.0941 38.3327 100.673 40.9877C103.252 43.6427 104.695 47.1984 104.695 50.8998C104.695 54.6012 103.252 58.1571 100.673 60.8122C98.0941 63.4672 94.5818 65.0125 90.8819 65.12C83.4609 65.12 77.3069 59.0798 77.0349 50.8998L77.0439 50.85C77.0439 50.74 77.0439 49.8098 77.0349 49.4198V27.11H85.1999V37.9399C86.9821 37.1133 88.9224 36.6834 90.8869 36.6798H90.8819ZM135.032 54.1899C135.032 56.0499 131.198 65.3199 121.385 65.2799C110.05 65.2499 106.552 55.5399 106.548 51.0199C106.535 47.1799 108.685 37.4999 119.765 36.2899C129.039 35.2699 134.45 43.7699 134.938 46.4799C134.301 46.8599 119.349 55.9098 119.349 55.9098C119.349 55.9098 118.337 56.5 118.189 56.59C118.089 56.65 117.972 56.7798 118.172 56.9098C119.081 57.397 120.094 57.6595 121.125 57.6752C122.157 57.6909 123.177 57.4593 124.101 56.9999C125.314 56.372 126.309 55.3926 126.957 54.1899H135.032ZM117.16 45.07C116.189 45.7192 115.412 46.6185 114.91 47.6728C114.408 48.7271 114.2 49.8973 114.308 51.06C114.308 51.06 123.476 45.38 124.394 44.86C123.297 44.193 122.03 43.8579 120.746 43.8952C119.462 43.9324 118.217 44.3404 117.16 45.07ZM34.7059 44.3798C33.4859 51.5198 28.2419 56.3399 21.9509 55.9398C21.9509 58.0798 21.9639 63.68 21.9509 66.08C36.3339 66.5 42.7979 54.87 43.9579 48.36C45.1229 41.83 48.7479 35.4099 57.8639 33.4499C58.3222 33.3755 58.7857 33.3389 59.2499 33.34V23.5099C58.8309 23.4532 58.406 23.4565 57.9879 23.5199C46.1049 24.5699 36.6399 32.9698 34.7059 44.3798ZM61.6569 56.7699C62.4122 56.7615 63.1584 56.6036 63.8524 56.3056C64.5465 56.0075 65.1747 55.575 65.7009 55.0331C66.2271 54.4912 66.6409 53.8506 66.9184 53.1481C67.1959 52.4456 67.3317 51.6951 67.3179 50.9399C67.3179 48.0899 65.0439 44.9299 61.6569 44.9499C57.9379 44.9599 55.9789 47.93 55.9789 51.11C56.0043 52.6063 56.6112 54.034 57.6711 55.0905C58.7309 56.147 60.1605 56.7494 61.6569 56.7699ZM61.3809 36.7099C65.0795 36.8173 68.5905 38.3622 71.1686 41.0163C73.7467 43.6704 75.1889 47.2248 75.1889 50.925C75.1889 54.6251 73.7467 58.1795 71.1686 60.8336C68.5905 63.4878 65.0795 65.0323 61.3809 65.1398C53.9639 65.1398 47.8529 59.0799 47.4809 50.9399H47.4549C47.4522 50.8396 47.4578 50.7391 47.4719 50.6398V50.6298C47.516 46.9541 48.9948 43.4411 51.5928 40.8405C54.1908 38.2399 57.7023 36.7576 61.3779 36.7099" fill="#48A548"/>
</svg>
