<svg width="200" height="88" viewBox="0 0 200 88" fill="none" xmlns="http://www.w3.org/2000/svg">
<path fill-rule="evenodd" clip-rule="evenodd" d="M57.0502 71.1899H52.8002V50.25H67.3301V53.98H57.0402V58.79H66.0502V62.48H57.0402V71.2L57.0502 71.1899ZM72.8201 60.8C72.8201 54.9 76.0902 53.4299 78.4102 53.4299C80.7302 53.4299 84.0001 54.9 84.0001 60.8C84.0001 66.7001 80.7302 68.1699 78.4102 68.1699C76.0902 68.1699 72.8201 66.71 72.8201 60.8ZM68.5701 60.8C68.5701 70.66 75.6902 71.8501 78.4102 71.8501C81.1302 71.8501 88.2401 70.66 88.2401 60.8C88.2401 50.94 81.1302 49.74 78.4102 49.74C75.6902 49.74 68.5701 50.93 68.5701 60.8ZM94.2802 60.8C94.2802 54.9 97.5501 53.4299 99.8701 53.4299C102.19 53.4299 105.46 54.9 105.46 60.8C105.46 66.7001 102.19 68.1699 99.8701 68.1699C97.5501 68.1699 94.2802 66.71 94.2802 60.8ZM90.0302 60.8C90.0302 70.66 97.1401 71.8501 99.8601 71.8501C102.58 71.8501 109.7 70.66 109.7 60.8C109.7 50.94 102.59 49.74 99.8601 49.74C97.1301 49.74 90.0302 50.93 90.0302 60.8ZM115.18 53.9299H119.27C121.09 53.9299 123.96 54.4201 123.96 60.6201C123.96 64.0701 122.79 67.6699 119.33 67.6699H115.18V53.9299ZM111 71.1899H119.84C126.58 71.1899 128.32 64.8 128.32 60.3C128.32 56.32 126.89 50.25 120.01 50.25H110.99V71.1899H111ZM134.62 64.8301C134.65 66.0001 135.22 68.23 138.95 68.23C140.97 68.23 143.23 67.73 143.23 65.51C143.23 63.87 141.69 63.4299 139.51 62.8999L137.3 62.3799C133.99 61.5899 130.81 60.83 130.81 56.21C130.81 53.87 132.03 49.75 138.68 49.75C144.96 49.75 146.63 53.96 146.66 56.53H142.57C142.46 55.59 142.12 53.3701 138.36 53.3701C136.73 53.3701 134.79 53.9799 134.79 55.8799C134.802 56.4545 135.034 57.0027 135.437 57.4119C135.841 57.821 136.386 58.0603 136.96 58.0801L141.97 59.3401C144.76 60.0401 147.31 61.21 147.31 64.98C147.31 71.29 141.06 71.8501 139.27 71.8501C131.81 71.8501 130.54 67.4401 130.54 64.8301H134.62ZM45.2802 35.0601L46.3901 32.02L44.7101 25.95H26.7601L25.0801 32.02L26.1901 35.0601H30.0101V34.27C30.0101 33.8245 30.1871 33.3971 30.5022 33.082C30.8173 32.767 31.2445 32.5901 31.6901 32.5901C32.1356 32.5901 32.563 32.767 32.8781 33.082C33.1931 33.3971 33.3701 33.8245 33.3701 34.27V39.1799C33.3701 40.6399 31.4302 40.77 31.4302 40.77L29.3002 40.8899L31.3801 46.9199H40.0901L42.1702 40.8899L40.0402 40.78C40.0402 40.78 38.1001 40.6499 38.1001 39.1799V34.28C38.1151 33.8445 38.2988 33.4317 38.6122 33.1289C38.9256 32.8261 39.3444 32.657 39.7802 32.657C40.2159 32.657 40.6347 32.8261 40.9481 33.1289C41.2615 33.4317 41.4451 33.8445 41.4601 34.28V35.0701H45.2802V35.0601ZM150 35.0601L151.11 31.8899L149.43 25.95H131.48L129.8 31.8899L130.91 35.0601H134.73V34.27C134.745 33.8345 134.929 33.4217 135.242 33.1189C135.556 32.8161 135.974 32.647 136.41 32.647C136.846 32.647 137.265 32.8161 137.578 33.1189C137.892 33.4217 138.075 33.8345 138.09 34.27V39.1799C138.09 40.6399 136.16 40.77 136.16 40.77L134.02 40.8899L136.11 46.9099H144.81L146.89 40.8899L144.75 40.77C144.75 40.77 142.82 40.6399 142.82 39.1799V34.27C142.82 33.8245 142.997 33.3971 143.312 33.082C143.627 32.767 144.055 32.5901 144.5 32.5901C144.946 32.5901 145.373 32.767 145.688 33.082C146.003 33.3971 146.18 33.8245 146.18 34.27V35.0601H150ZM66.9302 39.21V33.71C66.917 33.2512 67.0866 32.806 67.4016 32.4722C67.7167 32.1384 68.1513 31.9433 68.6101 31.9299C68.7374 31.9296 68.8645 31.9396 68.9901 31.96L71.1702 32L69.0001 25.98H60.4001L59.1101 32L61.3401 32.1101C61.6963 32.1836 62.0114 32.3897 62.2212 32.6868C62.431 32.9839 62.52 33.3497 62.4701 33.71V34.3799C62.4646 34.569 62.385 34.7484 62.2484 34.8794C62.1118 35.0103 61.9293 35.0825 61.7401 35.0801H56.1702C55.9895 35.0729 55.8181 34.9978 55.6902 34.8699C55.5623 34.742 55.4873 34.5706 55.4801 34.3899V33.71C55.4295 33.3495 55.5182 32.9833 55.7281 32.686C55.9381 32.3887 56.2535 32.1829 56.6101 32.1101L58.8301 32L57.5502 25.98H48.9401L46.7701 32L48.9901 32.0601C48.9901 32.0601 51.0101 32.1899 51.0101 33.6499V39.21C51.0101 40.67 48.9901 40.8101 48.9901 40.8101L46.7701 40.9199L48.9401 46.95H57.5502L58.8301 40.9199L56.6101 40.8C56.2529 40.7322 55.9358 40.5288 55.7252 40.2324C55.5146 39.9361 55.4267 39.5696 55.4801 39.21V38.54C55.4846 38.3592 55.5572 38.1866 55.6832 38.0569C55.8093 37.9271 55.9795 37.8498 56.1602 37.8401H61.7401C61.9277 37.8398 62.108 37.9127 62.2426 38.0435C62.3771 38.1742 62.4551 38.3525 62.4601 38.54V39.21C62.5122 39.5706 62.4241 39.9375 62.2139 40.2351C62.0037 40.5327 61.6874 40.7386 61.3301 40.8101L59.1101 40.9199L60.3901 46.9399H69.0001L71.1702 40.9199L68.9501 40.8101C68.9501 40.8101 66.9302 40.67 66.9302 39.21ZM104.88 39.1799V33.6799C104.88 32.2199 106.82 32.0901 106.82 32.0901L108.95 31.97L106.87 25.95H98.3701L96.2902 31.97L98.4302 32.0901C98.4302 32.0901 100.36 32.2199 100.36 33.6799V39.1799C100.36 40.6399 98.4302 40.77 98.4302 40.77L96.2902 40.8899L98.3701 46.9099H106.87L108.95 40.8899L106.82 40.77C106.82 40.77 104.87 40.6399 104.87 39.1799H104.88ZM127.37 25.95H111.57L109.49 31.97L111.62 32.0901C111.62 32.0901 113.55 32.2199 113.55 33.6799V39.1799C113.55 40.6399 111.62 40.77 111.62 40.77L109.49 40.8899L111.57 46.9099H120.12L122.03 40.77L119.67 40.45C119.09 40.279 118.592 39.902 118.27 39.3899C118.089 38.9679 117.981 38.5183 117.95 38.0601H119.67L120.18 39.3899H122.67L124.03 36.4199L122.67 33.71H120.18L119.67 35.1101H118.09V33.6001C118.042 33.2423 118.136 32.8797 118.353 32.5913C118.571 32.3029 118.893 32.1121 119.25 32.0601C119.336 32.0466 119.423 32.0432 119.51 32.05H122.15C122.458 32.0269 122.767 32.0905 123.041 32.2336C123.315 32.3768 123.543 32.5938 123.7 32.8601C123.79 33.0101 124.47 35.1201 124.47 35.1201L127.97 35.1299L129.35 32.1201L127.37 25.95ZM159.79 38.3201C158.748 37.9321 157.798 37.329 157.004 36.5503C156.21 35.7716 155.589 34.8346 155.18 33.8C154.964 33.3461 154.609 32.9725 154.167 32.7334C153.725 32.4943 153.218 32.4021 152.72 32.47H151.59L153.5 26.01H161.02L162.97 32.47H161.64C160.34 32.47 159.79 32.5599 159.79 33.1299C159.79 34.5699 161.61 35.6799 163.28 35.6799C165.09 35.6799 166.8 34.5699 166.8 33.1299C166.8 32.5899 166.25 32.47 165.13 32.47H163.65L165.6 26.01H173.15L175.03 32.47H173.9C173.402 32.4056 172.897 32.4993 172.456 32.738C172.014 32.9767 171.659 33.3483 171.44 33.8C171.027 34.832 170.404 35.7665 169.61 36.5447C168.817 37.3228 167.87 37.9275 166.83 38.3201V39.6201C166.798 39.921 166.886 40.2222 167.075 40.4583C167.264 40.6944 167.539 40.8459 167.84 40.8799C167.9 40.8882 167.96 40.8915 168.02 40.8899H169.6L167.68 46.9099H158.93L157.02 40.8899H158.59C158.737 40.9006 158.885 40.8824 159.025 40.8359C159.165 40.7895 159.295 40.7158 159.406 40.6191C159.517 40.5225 159.609 40.4049 159.675 40.2729C159.741 40.141 159.78 39.9973 159.79 39.8501C159.8 39.7738 159.8 39.6965 159.79 39.6201V38.3201ZM75.0901 33.45C75.0616 33.0396 74.8723 32.6573 74.5634 32.3857C74.2544 32.1142 73.8507 31.9756 73.4401 32C73.342 32.0069 73.2449 32.0237 73.1501 32.05H71.6802L73.4801 26H86.8701C91.5501 26 93.8002 28.53 93.8002 32.5C93.8002 36.47 90.7902 36.45 90.7902 36.45C91.2034 36.5832 91.5617 36.8478 91.8108 37.2034C92.0599 37.559 92.1861 37.9861 92.1702 38.4199V38.9299C92.1603 39.1867 92.201 39.4429 92.2902 39.6838C92.3793 39.9248 92.515 40.146 92.6896 40.3345C92.8642 40.523 93.0742 40.6754 93.3076 40.7827C93.5411 40.89 93.7934 40.9502 94.0502 40.96C94.1975 40.9703 94.3455 40.9602 94.4901 40.9299H96.0701L93.7401 46.9099H91.8401C87.8101 46.9099 86.0402 45.99 86.0402 41.76V40.9299C86.426 40.8773 86.778 40.6814 87.0262 40.3813C87.2745 40.0813 87.4008 39.699 87.3801 39.3101C87.3801 38.2001 86.1002 38.1001 85.2802 38.1001H80.2701V38.8301C80.2364 39.0724 80.2508 39.3189 80.3125 39.5557C80.3742 39.7924 80.482 40.0147 80.6296 40.2097C80.7773 40.4048 80.9621 40.5688 81.1732 40.6924C81.3843 40.816 81.6177 40.8966 81.8601 40.9299C82.0288 40.9599 82.2014 40.9599 82.3701 40.9299H83.7101L81.9102 46.9199H73.5101L71.6702 40.9299H73.0801C73.3198 40.9545 73.562 40.9317 73.7928 40.8625C74.0237 40.7934 74.2387 40.6794 74.4254 40.5271C74.6121 40.3748 74.7669 40.1871 74.881 39.9749C74.995 39.7626 75.0661 39.5298 75.0901 39.29C75.1117 39.1372 75.1083 38.9819 75.0801 38.8301V33.45H75.0901ZM85.2201 32.47H80.2701V35.1299H85.2201C85.4131 35.1816 85.6145 35.1948 85.8126 35.1685C86.0107 35.1421 86.2018 35.0769 86.3746 34.9766C86.5475 34.8762 86.6987 34.7428 86.8198 34.5837C86.9409 34.4247 87.0293 34.2434 87.0801 34.05C87.0982 33.9878 87.1116 33.9244 87.1201 33.8601C87.1201 32.9401 86.5201 32.47 85.2101 32.47H85.2201Z" fill="#00AD5F"/>
</svg>
